<?xml version="1.0" encoding="UTF-8"?>
<svg xmlns="http://www.w3.org/2000/svg" id="Layer_2" data-name="Layer 2" viewBox="0 0 376.32 98.25">
  <defs>
    <style>
      .cls-1 {
        stroke-width: 0px;
      }
    </style>
  </defs>
  <g id="Layer_2-2" data-name="Layer 2">
    <g>
      <path class="cls-1" d="M8.97,21.45c.86-.97,2.42-1.46,4.7-1.46h29.06v-7.18H13.67c-4.72,0-8.19,1.11-10.38,3.34-2.19,2.22-3.29,5.67-3.29,10.34v20.51c0,4.68,1.1,8.12,3.29,10.34,2.19,2.22,5.66,3.34,10.38,3.34h29.06v-7.18H13.67c-2.28,0-3.84-.49-4.7-1.46-.85-.96-1.28-2.64-1.28-5.04v-20.51c0-2.4.43-4.08,1.28-5.04Z"></path>
      <path class="cls-1" d="M58.25,60.68h-7.69V0h7.69v11.24c0,.87.71,1.58,1.58,1.58h19.79c4.67,0,8.12,1.11,10.34,3.33,2.22,2.22,3.33,5.67,3.33,10.34v34.18h-7.69V26.49c0-2.39-.43-4.07-1.28-5.04-.85-.97-2.42-1.45-4.7-1.45h-19.79c-.87,0-1.58.71-1.58,1.58v39.1Z"></path>
      <path class="cls-1" d="M140.53,16.15c-2.22-2.22-5.67-3.34-10.34-3.34h-25.21v7.18h25.21c2.28,0,3.84.49,4.7,1.46.85.96,1.28,2.64,1.28,5.04v1.63c0,.9-.61,1.69-1.48,1.91l-19.89,5.11c-2.65.68-4.61,1.18-5.88,1.51-1.27.33-2.62.93-4.04,1.82-1.42.88-2.41,2.01-2.94,3.38-.54,1.37-.81,3.08-.81,5.14,0,4.68,1.11,8.12,3.33,10.34,2.22,2.22,5.67,3.34,10.34,3.34h15.39c4.67,0,8.12-1.11,10.34-3.34,2.22-2.22,3.33-5.66,3.33-10.34v-20.51c0-4.67-1.11-8.12-3.33-10.34ZM136.17,46.99c0,2.4-.43,4.08-1.28,5.05-.86.97-2.42,1.46-4.7,1.46h-15.39c-2.28,0-3.84-.49-4.7-1.47-.85-.97-1.28-2.67-1.28-5.07,0-1.33.37-2.27,1.1-2.84.74-.58,2.36-1.18,4.86-1.81l21.38-5.35v10.02Z"></path>
      <path class="cls-1" d="M164.09,53.5h13.67v7.18h-13.67c-4.27,0-7.34-.93-9.19-2.78-1.85-1.85-2.78-4.91-2.78-9.19V0h7.69v11.24c0,.87.71,1.58,1.58,1.58h14.66v7.18h-14.66c-.87,0-1.58.71-1.58,1.58v27.14c0,1.77.3,3.01.9,3.72.6.71,1.72,1.07,3.38,1.07Z"></path>
      <path class="cls-1" d="M196.28,53.5h13.67v7.18h-13.67c-4.27,0-7.34-.93-9.19-2.78-1.85-1.85-2.78-4.91-2.78-9.19V0h7.69v11.24c0,.87.71,1.58,1.58,1.58h14.66v7.18h-14.66c-.87,0-1.58.71-1.58,1.58v27.14c0,1.77.3,3.01.9,3.72.6.71,1.72,1.07,3.38,1.07Z"></path>
      <path class="cls-1" d="M251.54,12.82h7.69v34.18c0,4.67-1.11,8.12-3.33,10.34-2.22,2.22-5.67,3.33-10.34,3.33h-15.38c-4.67,0-8.12-1.11-10.34-3.33-2.22-2.22-3.33-5.67-3.33-10.34V12.82h7.69v34.18c0,2.39.43,4.07,1.28,5.04.85.97,2.42,1.45,4.7,1.45h15.38c2.28,0,3.85-.48,4.7-1.45.85-.97,1.28-2.65,1.28-5.04V12.82Z"></path>
      <path class="cls-1" d="M279.89,53.5h13.67v7.18h-13.67c-4.27,0-7.34-.93-9.19-2.78-1.85-1.85-2.78-4.91-2.78-9.19V4.27h7.69v6.97c0,.87.71,1.58,1.58,1.58h14.66v7.18h-14.66c-.87,0-1.58.71-1.58,1.58v27.14c0,1.77.3,3.01.9,3.72.6.71,1.72,1.07,3.38,1.07Z"></path>
      <path class="cls-1" d="M328.75,12.82c4.73,0,8.19,1.11,10.38,3.33,2.19,2.22,3.29,5.67,3.29,10.34v20.51c0,4.67-1.1,8.12-3.29,10.34-2.19,2.22-5.66,3.33-10.38,3.33h-15.38c-4.73,0-8.19-1.11-10.38-3.33-2.19-2.22-3.29-5.67-3.29-10.34v-20.51c0-4.67,1.1-8.12,3.29-10.34,2.19-2.22,5.65-3.33,10.38-3.33h15.38ZM334.73,47v-20.51c0-2.39-.43-4.07-1.28-5.04-.85-.97-2.42-1.45-4.7-1.45h-15.38c-2.28,0-3.85.48-4.7,1.45-.85.97-1.28,2.65-1.28,5.04v20.51c0,2.39.43,4.07,1.28,5.04.85.97,2.42,1.45,4.7,1.45h15.38c2.28,0,3.85-.48,4.7-1.45.85-.97,1.28-2.65,1.28-5.04Z"></path>
      <path class="cls-1" d="M376.32,12.82v7.18h-11.96c-2.28,0-3.85.48-4.7,1.45-.85.97-1.28,2.65-1.28,5.04v34.18h-7.69V26.49c0-4.67,1.11-8.12,3.33-10.34,2.22-2.22,5.67-3.33,10.34-3.33h11.96Z"></path>
    </g>
    <g>
      <path class="cls-1" d="M6.18,76.87H0v-2.25h14.78v2.25h-6.15v15.91h-2.46v-15.91Z"></path>
      <path class="cls-1" d="M17.04,74.1h2.35v7.88c.89-1.18,2.28-1.88,3.93-1.88,2.83,0,4.87,2.07,4.87,4.97v7.72h-2.35v-7.25c0-1.91-1.31-3.24-3.19-3.24s-3.25,1.36-3.25,3.24v7.25h-2.35v-18.68Z"></path>
      <path class="cls-1" d="M30.3,86.56c0-3.64,2.8-6.46,6.41-6.46,3.4,0,5.86,2.56,5.86,6.1,0,.37-.03.76-.13,1.26h-9.73c.37,2.07,1.94,3.38,4.16,3.38,1.39,0,2.62-.47,3.43-1.47l1.52,1.54c-1.2,1.39-2.98,2.15-4.95,2.15-3.74,0-6.57-2.77-6.57-6.49ZM32.71,85.48h7.56c-.26-2.02-1.57-3.22-3.61-3.22s-3.58,1.26-3.95,3.22Z"></path>
      <path class="cls-1" d="M51.84,82.5h-3.06v-2.15h3.06v-1.86c0-2.75,1.94-4.66,4.74-4.66,1.41,0,2.41.52,3.3,1.44l-1.54,1.52c-.47-.47-.99-.76-1.78-.76-1.49,0-2.36.92-2.36,2.46v1.86h3.95v2.15h-3.95v10.28h-2.36v-10.28Z"></path>
      <path class="cls-1" d="M59.92,87.57v-7.22h2.36v7.12c0,2.04,1.13,3.3,2.98,3.3s2.96-1.23,2.96-3.3v-7.12h2.36v7.22c0,3.25-2.17,5.47-5.31,5.47s-5.34-2.25-5.34-5.47Z"></path>
      <path class="cls-1" d="M75.39,82.5h-3.06v-2.15h3.06v-5.21h2.36v5.21h3.06v2.15h-3.06v10.28h-2.36v-10.28Z"></path>
      <path class="cls-1" d="M82.53,87.57v-7.22h2.36v7.12c0,2.04,1.13,3.3,2.98,3.3s2.96-1.23,2.96-3.3v-7.12h2.36v7.22c0,3.25-2.17,5.47-5.31,5.47s-5.34-2.25-5.34-5.47Z"></path>
      <path class="cls-1" d="M96.09,80.35h2.36v1.47c.71-1.1,1.86-1.73,3.38-1.73,1.26,0,2.25.42,3.11,1.41l-1.54,1.6c-.55-.55-1.15-.78-1.96-.78-1.75,0-2.98,1.13-2.98,3.38v7.09h-2.36v-12.43Z"></path>
      <path class="cls-1" d="M105.12,86.56c0-3.64,2.8-6.46,6.41-6.46,3.4,0,5.86,2.56,5.86,6.1,0,.37-.03.76-.13,1.26h-9.73c.37,2.07,1.94,3.38,4.16,3.38,1.39,0,2.62-.47,3.43-1.47l1.52,1.54c-1.2,1.39-2.98,2.15-4.95,2.15-3.74,0-6.57-2.77-6.57-6.49ZM107.52,85.48h7.56c-.26-2.02-1.57-3.22-3.61-3.22s-3.58,1.26-3.95,3.22Z"></path>
      <path class="cls-1" d="M124.06,86.53c0-3.61,2.83-6.44,6.49-6.44s6.49,2.83,6.49,6.44-2.85,6.52-6.49,6.52-6.49-2.88-6.49-6.52ZM134.61,86.53c0-2.43-1.73-4.16-4.06-4.16s-4.06,1.75-4.06,4.16,1.7,4.24,4.06,4.24,4.06-1.78,4.06-4.24Z"></path>
      <path class="cls-1" d="M140.81,82.5h-3.06v-2.15h3.06v-1.86c0-2.75,1.94-4.66,4.74-4.66,1.41,0,2.41.52,3.3,1.44l-1.54,1.52c-.47-.47-.99-.76-1.78-.76-1.49,0-2.36.92-2.36,2.46v1.86h3.95v2.15h-3.95v10.28h-2.36v-10.28Z"></path>
      <path class="cls-1" d="M160.17,74.62h1.78l7.41,18.16h-2.67l-1.65-4.11h-8.06l-1.62,4.11h-2.62l7.43-18.16ZM164.2,86.53l-3.17-7.95-3.19,7.95h6.36Z"></path>
      <path class="cls-1" d="M171.82,74.62h2.46v18.16h-2.46v-18.16Z"></path>
      <path class="cls-1" d="M177.89,85.01h8.61v2.22h-8.61v-2.22Z"></path>
      <path class="cls-1" d="M189.32,86.58c0-3.64,2.64-6.49,6.07-6.49,1.75,0,3.24.73,4.13,1.96v-1.7h2.38v12.43h-2.38v-1.67c-.89,1.2-2.36,1.94-4.13,1.94-3.43,0-6.07-2.83-6.07-6.46ZM199.69,86.58c0-2.54-1.57-4.27-3.92-4.27s-4,1.75-4,4.24,1.67,4.27,4.03,4.27,3.9-1.73,3.9-4.24Z"></path>
      <path class="cls-1" d="M203.98,90.77l1.52-1.52c.89,1.13,2.09,1.65,3.56,1.65s2.3-.52,2.3-1.44c0-2.72-6.67-1.18-6.67-5.7,0-2.25,1.7-3.66,4.45-3.66,1.94,0,3.48.71,4.47,2.04l-1.52,1.52c-.71-.92-1.73-1.41-3.03-1.41s-2.09.52-2.09,1.33c0,2.46,6.65,1.05,6.65,5.68,0,2.33-1.78,3.79-4.58,3.79-2.09,0-3.9-.84-5.05-2.28Z"></path>
      <path class="cls-1" d="M214.89,90.77l1.52-1.52c.89,1.13,2.09,1.65,3.56,1.65s2.3-.52,2.3-1.44c0-2.72-6.67-1.18-6.67-5.7,0-2.25,1.7-3.66,4.45-3.66,1.94,0,3.48.71,4.47,2.04l-1.52,1.52c-.71-.92-1.73-1.41-3.03-1.41s-2.09.52-2.09,1.33c0,2.46,6.65,1.05,6.65,5.68,0,2.33-1.78,3.79-4.58,3.79-2.09,0-3.9-.84-5.05-2.28Z"></path>
      <path class="cls-1" d="M226.61,76.35c0-.84.63-1.49,1.49-1.49s1.49.65,1.49,1.49-.63,1.52-1.49,1.52-1.49-.65-1.49-1.52ZM226.93,80.35h2.36v12.43h-2.36v-12.43Z"></path>
      <path class="cls-1" d="M231.4,90.77l1.52-1.52c.89,1.13,2.09,1.65,3.56,1.65s2.3-.52,2.3-1.44c0-2.72-6.67-1.18-6.67-5.7,0-2.25,1.7-3.66,4.45-3.66,1.94,0,3.48.71,4.47,2.04l-1.52,1.52c-.71-.92-1.73-1.41-3.03-1.41s-2.09.52-2.09,1.33c0,2.46,6.65,1.05,6.65,5.68,0,2.33-1.78,3.79-4.58,3.79-2.09,0-3.9-.84-5.05-2.28Z"></path>
      <path class="cls-1" d="M245.32,82.5h-3.06v-2.15h3.06v-5.21h2.36v5.21h3.06v2.15h-3.06v10.28h-2.36v-10.28Z"></path>
      <path class="cls-1" d="M251.58,86.56c0-3.64,2.8-6.46,6.41-6.46,3.4,0,5.86,2.56,5.86,6.1,0,.37-.03.76-.13,1.26h-9.73c.37,2.07,1.94,3.38,4.16,3.38,1.39,0,2.62-.47,3.43-1.47l1.52,1.54c-1.2,1.39-2.98,2.15-4.95,2.15-3.74,0-6.57-2.77-6.57-6.49ZM253.99,85.48h7.56c-.26-2.02-1.57-3.22-3.61-3.22s-3.58,1.26-3.95,3.22Z"></path>
      <path class="cls-1" d="M265.37,86.58c0-3.66,2.62-6.49,6.02-6.49,1.78,0,3.27.76,4.19,1.99v-7.98h2.38v18.68h-2.38v-1.7c-.89,1.23-2.41,1.96-4.16,1.96-3.43,0-6.05-2.83-6.05-6.46ZM275.73,86.58c0-2.51-1.6-4.27-3.95-4.27s-3.98,1.75-3.98,4.24,1.65,4.27,4,4.27,3.92-1.75,3.92-4.24Z"></path>
      <path class="cls-1" d="M286.3,74.1h2.35v18.68h-2.35v-18.68Z"></path>
      <path class="cls-1" d="M291.04,86.56c0-3.64,2.8-6.46,6.41-6.46,3.4,0,5.86,2.56,5.86,6.1,0,.37-.03.76-.13,1.26h-9.73c.37,2.07,1.94,3.38,4.16,3.38,1.39,0,2.62-.47,3.43-1.47l1.52,1.54c-1.2,1.39-2.98,2.15-4.95,2.15-3.74,0-6.57-2.77-6.57-6.49ZM293.45,85.48h7.56c-.26-2.02-1.57-3.22-3.61-3.22s-3.58,1.26-3.95,3.22Z"></path>
      <path class="cls-1" d="M304.83,86.58c0-3.64,2.64-6.49,6.07-6.49,1.75,0,3.24.73,4.13,1.96v-1.7h2.38v12.43h-2.38v-1.67c-.89,1.2-2.36,1.94-4.13,1.94-3.43,0-6.07-2.83-6.07-6.46ZM315.19,86.58c0-2.54-1.57-4.27-3.92-4.27s-4,1.75-4,4.24,1.67,4.27,4.03,4.27,3.9-1.73,3.9-4.24Z"></path>
      <path class="cls-1" d="M320.58,80.35h2.35v1.47c.71-1.1,1.86-1.73,3.38-1.73,1.26,0,2.25.42,3.11,1.41l-1.54,1.6c-.55-.55-1.15-.78-1.96-.78-1.75,0-2.98,1.13-2.98,3.38v7.09h-2.35v-12.43Z"></path>
      <path class="cls-1" d="M330.87,80.35h2.35v1.62c.89-1.18,2.28-1.88,3.93-1.88,2.85,0,4.87,2.38,4.87,4.97v7.72h-2.35v-7.25c0-1.91-1.31-3.24-3.19-3.24s-3.25,1.36-3.25,3.24v7.25h-2.35v-12.43Z"></path>
      <path class="cls-1" d="M344.66,76.35c0-.84.63-1.49,1.49-1.49s1.49.65,1.49,1.49-.63,1.52-1.49,1.52-1.49-.65-1.49-1.52ZM344.97,80.35h2.36v12.43h-2.36v-12.43Z"></path>
      <path class="cls-1" d="M350.55,80.35h2.36v1.62c.89-1.18,2.28-1.88,3.92-1.88,2.85,0,4.87,2.38,4.87,4.97v7.72h-2.36v-7.25c0-1.91-1.31-3.24-3.19-3.24s-3.24,1.36-3.24,3.24v7.25h-2.36v-12.43Z"></path>
      <path class="cls-1" d="M363.81,86.32c0-3.53,2.56-6.23,5.94-6.23,1.83,0,3.3.71,4.21,1.94v-1.67h2.35v11.93c0,3.58-2.64,5.97-6.54,5.97-2.56,0-4.55-.97-5.76-2.69l1.52-1.54c.99,1.28,2.38,1.99,4.29,1.99,2.54,0,4.14-1.41,4.14-3.72v-1.65c-.92,1.23-2.38,1.94-4.19,1.94-3.4,0-5.97-2.67-5.97-6.25ZM374.1,86.35c0-2.41-1.54-4.03-3.87-4.03s-3.98,1.65-3.98,4,1.65,4.03,4,4.03,3.85-1.6,3.85-4Z"></path>
    </g>
  </g>
</svg>
